<?xml version="1.0" encoding="utf-8"?>
<!-- Generator: Adobe Illustrator 19.0.0, SVG Export Plug-In . SVG Version: 6.00 Build 0)  -->
<svg version="1.1" id="Calque_1" xmlns="http://www.w3.org/2000/svg" xmlns:xlink="http://www.w3.org/1999/xlink" x="0px" y="0px"
	 viewBox="0 0 42 42" style="enable-background:new 0 0 42 42;" xml:space="preserve">
<style type="text/css">
	.st0{fill:#E9E5CC;}
</style>
<g>
	<path class="st0" d="M3,42c-1.7,0-3-1.3-3-3V3c0-1.7,1.3-3,3-3h36c1.7,0,3,1.3,3,3c0,1.7-1.3,3-3,3H6v33C6,40.7,4.7,42,3,42z"/>
	<path class="st0" d="M27,42H15c-1.7,0-3-1.3-3-3V15c0-1.7,1.3-3,3-3h12c5.2,0,15,3.1,15,15C42,38.9,32.2,42,27,42z M18,36h9
		c1.5,0,9-0.5,9-9c0-8.7-8.1-9-9-9h-9V36z"/>
</g>
</svg>
